/* XPM */
static char *_bbcd8efb86346adc2f2d4d3a0eddd807oFPkNQBfRKZgY4B[] = {
/* columns rows colors chars-per-pixel */
"64 64 13 1 ",
"  c None",
". c #1B1B1B",
"X c #524C46",
"o c #43764F",
"O c #767474",
"+ c #897F75",
"@ c #62A46A",
"# c #AD823C",
"$ c #81BF7C",
"% c #E4AC50",
"& c #4998ED",
"* c #A7DBFF",
"= c #C8C8C8",
/* pixels */
"  ............................................................  ",
"  .OO=.++++++++++.                            .++++++++++.=OO.  ",
"  .OO=..........+.                            .+..........=OO.  ",
"  .OO=.XXXXXXXX.+.                            .+.XXXXXXXX.=OO.  ",
"  .OO=.+XXXXXXX.+.                            .+.XXXXXXX+.=OO.  ",
"  .OO=.++XXXXXX.+.                            .+.XXXXXX++.=OO.  ",
"  ......++XXXXX.+.                            .+.XXXXX++......  ",
"  .o@$o.+++XXXX.+.                            .+.XXXX+++.o$@o.  ",
"  .o@$o.++++XXX.+.                            .+.XXX++++.o$@o.  ",
"  .o@$o.+++++XX.+.                            .+.XX+++++.o$@o.  ",
"  .o@$o.++++++X.+.                            .+.X++++++.o$@o.  ",
"  .o@$o.+++++++.+.                            .+.+++++++.o$@o.  ",
"  .o@$o.+++++++.+.                            .+.+++++++.o$@o.  ",
"  ........+++++.+.                            .+.+++++........  ",
"  .o@@@@$o.++++.+.                            .+.++++.o$@@@@o.  ",
"  .o.....o.++++.+.                            .+.++++.o.....o.  ",
"  .o.&&&.o.++++.+.                            .+.++++.o.&&&.o.  ",
"  .o.&*&.o.++++.+.                            .+.++++.o.&*&.o.  ",
"  .o.&*&.o.++++.+.                            .+.++++.o.&*&.o.  ",
"  .o.&*&.o.++++++.                            .++++++.o.&*&.o.  ",
"  .o.&*&.o.++++++.                            .++++++.o.&*&.o.  ",
"  .o.&*&.o.+++++..                            ..+++++.o.&*&.o.  ",
"  .o.&*&.o.++++.o.                            .o.++++.o.&*&.o.  ",
"  .o.&*&.o.+++.o@.                            .@o.+++.o.&*&.o.  ",
"  .o.&*&.o.++.o@@.                            .@@o.++.o.&*&.o.  ",
"  .o.&*&.o.++.o...                            ...o.++.o.&*&.o.  ",
"  .o.&*&.o.++.o.$.                            .$.o.++.o.&*&.o.  ",
"  .o.&&&.o.++.o.$.                            .$.o.++.o.&&&.o.  ",
"  .o.....o.++.o.$.                            .$.o.++.o.....o.  ",
"  .o@@@@$o.++.o.$.                            .$.o.++.o$@@@@o.  ",
"  .o@@@$o.+++.o.$.                            .$.o.+++.o$@@@o.  ",
"  .o@@$o.++++.o.$.                            .$.o.++++.o$@@o.  ",
"  .o@$o.+++++.o.$.                            .$.o.+++++.o$@o.  ",
"  .o@$o.+++++.o...                            ...o.+++++.o$@o.  ",
"  .o@$o.+++++.o@@.                            .@@o.+++++.o$@o.  ",
"  .o@$o.++++++....                            ....++++++.o$@o.  ",
"  .o@$o.+++++++++.                            .+++++++++.o$@o.  ",
"  .o@$o.+++++++X+.                            .+X+++++++.o$@o.  ",
"  .o@$o.+++++++X+.                            .+X+++++++.o$@o.  ",
"  .o@$o.+++++++X+.                            .+X+++++++.o$@o.  ",
"  .o@$o.+++++++X+.                            .+X+++++++.o$@o.  ",
"  .o@$o.+++++++X+.                            .+X+++++++.o$@o.  ",
"  .o@$o.+++++++X+.                            .+X+++++++.o$@o.  ",
"  .o@$o.+++++++X+.                            .+X+++++++.o$@o.  ",
"  .o@$o.+++++++X+.                            .+X+++++++.o$@o.  ",
"  .o@$o.+++++++X+.                            .+X+++++++.o$@o.  ",
"  .o@$o.+++++++X+.                            .+X+++++++.o$@o.  ",
"  .o@$o.+++++++X+.                            .+X+++++++.o$@o.  ",
"  .o@$o.+++++++X+.                            .+X+++++++.o$@o.  ",
"  .o@$o.+++++++X+.                            .+X+++++++.o$@o.  ",
"  .o@$o.+++++++X+.                            .+X+++++++.o$@o.  ",
"  .o@$o.+++++++X+.                            .+X+++++++.o$@o.  ",
"  .o@$o.+++++++X+.                            .+X+++++++.o$@o.  ",
"  .o@$o.+++++++X+.                            .+X+++++++.o$@o.  ",
"  .o@$o.+++++++++.                            .+++++++++.o$@o.  ",
"  .o@$o.+++++++++.                            .+++++++++.o$@o.  ",
"  .o@$o.......+++.                            .+++.......o$@o.  ",
"  .....++++++++++.                            .++++++++++.....  ",
"  .O=O.........++.                            .++.........O=O.  ",
"  .O=O.#######.++.                            .++.#######.O=O.  ",
"  .OOO.%%%%%%%.++.                            .++.%%%%%%%.OOO.  ",
" .OO=OO.......+++.                            .+++.......OO=OO. ",
" .O===O.+++++++++.                            .+++++++++.O===O. ",
" .............................................................. "
};
