/* XPM */
static char *_d18c33e79ac45f0e3234f9327a69a950DHqyqHhnT3Hr2Lo[] = {
/* columns rows colors chars-per-pixel */
"64 64 13 1 ",
"  c #FF00FF",
". c #1B1B1B",
"X c #524C46",
"o c #43764F",
"O c #767474",
"+ c #897F75",
"@ c #62A46A",
"# c #AD823C",
"$ c #81BF7C",
"% c #E4AC50",
"& c #4998ED",
"* c #A7DBFF",
"= c #C8C8C8",
/* pixels */
"............                                        ............",
"...OO=.++++.                                        .++++.=OO...",
"...OO=....+.                                        .+....=OO...",
"...OO=.XX.+.                                        .+.XX.=OO...",
"...OO=.XX.+.                                        .+.XX.=OO...",
"...OO=.XX.+.                                        .+.XX.=OO...",
"........X.+.                                        .+.X........",
"...o@$o.X.+.                                        .+.X.o$@o...",
"...o@$o.X.+.                                        .+.X.o$@o...",
"...o@$o.X.+.                                        .+.X.o$@o...",
"...o@$o.X.+.                                        .+.X.o$@o...",
"...o@$o.+.+.                                        .+.+.o$@o...",
"...o@$o.+.+.                                        .+.+.o$@o...",
"..........+.                                        .+..........",
"...o@@@@$o..                                        ..o$@@@@o...",
"...o.....o..                                        ..o.....o...",
"...o.&&&.o..                                        ..o.&&&.o...",
"...o.&*&.o..                                        ..o.&*&.o...",
"...o.&*&.o..                                        ..o.&*&.o...",
"...o.&*&.o..                                        ..o.&*&.o...",
"...o.&*&.o..                                        ..o.&*&.o...",
"...o.&*&.o..                                        ..o.&*&.o...",
"...o.&*&.o..                                        ..o.&*&.o...",
"...o.&*&.o..                                        ..o.&*&.o...",
"...o.&*&.o..                                        ..o.&*&.o...",
"...o.&*&.o..                                        ..o.&*&.o...",
"...o.&*&.o..                                        ..o.&*&.o...",
"...o.&&&.o..                                        ..o.&&&.o...",
"...o.....o..                                        ..o.....o...",
"...o@@@@$o..                                        ..o$@@@@o...",
"...o@@@$o.$.                                        .$.o$@@@o...",
"...o@@$o..$.                                        .$..o$@@o...",
"...o@$o.o.$.                                        .$.o.o$@o...",
"...o@$o.o...                                        ...o.o$@o...",
"...o@$o.o@@.                                        .@@o.o$@o...",
"...o@$o.....                                        .....o$@o...",
"...o@$o.+++.                                        .+++.o$@o...",
"...o@$o.+X+.                                        .+X+.o$@o...",
"...o@$o.+X+.                                        .+X+.o$@o...",
"...o@$o.+X+.                                        .+X+.o$@o...",
"...o@$o.+X+.                                        .+X+.o$@o...",
"...o@$o.+X+.                                        .+X+.o$@o...",
"...o@$o.+X+.                                        .+X+.o$@o...",
"...o@$o.+X+.                                        .+X+.o$@o...",
"...o@$o.+X+.                                        .+X+.o$@o...",
"...o@$o.+X+.                                        .+X+.o$@o...",
"...o@$o.+X+.                                        .+X+.o$@o...",
"...o@$o.+X+.                                        .+X+.o$@o...",
"...o@$o.+X+.                                        .+X+.o$@o...",
"...o@$o.+X+.                                        .+X+.o$@o...",
"...o@$o.+X+.                                        .+X+.o$@o...",
"...o@$o.+X+.                                        .+X+.o$@o...",
"...o@$o.+X+.                                        .+X+.o$@o...",
"...o@$o.+X+.                                        .+X+.o$@o...",
"...o@$o.+++.                                        .+++.o$@o...",
"...o@$o.+++.                                        .+++.o$@o...",
"...o@$o.+++.                                        .+++.o$@o...",
".......++++.                                        .++++.......",
"...O=O...++.                                        .++...O=O...",
"...O=O.#.++.                                        .++.#.O=O...",
"...OOO.%.++.                                        .++.%.OOO...",
"..OO=OO.+++.                                        .+++.OO=OO..",
"..O===O.+++.                                        .+++.O===O..",
"............                                        ............"
};
