/* XPM */
static char *_a8528adb09e4a37c4bdc82048ff0b5eqcoHrAwQDKHxaBRp[] = {
/* columns rows colors chars-per-pixel */
"20 20 205 2 ",
"   c #15BD69",
".  c #14C068",
"X  c #15C26D",
"o  c #17C56F",
"O  c #19C46F",
"+  c #1AC56E",
"@  c #1CCA6F",
"#  c #19C670",
"$  c #1AC771",
"%  c #1CC772",
"&  c #1DCB73",
"*  c #1CC974",
"=  c #1FC874",
"-  c #1DCB75",
";  c #1BCE74",
":  c #1ECC74",
">  c #1ECC76",
",  c #1FD177",
"<  c #21C572",
"1  c #24C775",
"2  c #22C875",
"3  c #20CB76",
"4  c #25C876",
"5  c #26C876",
"6  c #24CA77",
"7  c #20CD77",
"8  c #21CE76",
"9  c #21CE78",
"0  c #22CF79",
"q  c #25CC78",
"w  c #25CE79",
"e  c #29CA78",
"r  c #29CD7A",
"t  c #28CE7A",
"y  c #29CF7C",
"u  c #23D07A",
"i  c #26D178",
"p  c #24D278",
"a  c #25D07A",
"s  c #26D17A",
"d  c #25D37B",
"f  c #24D47B",
"g  c #24D17C",
"h  c #27D07C",
"j  c #25D37D",
"k  c #27D27D",
"l  c #23D67C",
"z  c #25D57C",
"x  c #26D47C",
"c  c #26D47E",
"v  c #28D67B",
"b  c #2AD07D",
"n  c #28D37C",
"m  c #2DD17E",
"M  c #2CD37F",
"N  c #28D57D",
"B  c #29D57D",
"V  c #28D57F",
"C  c #27D87C",
"Z  c #28D97D",
"A  c #2BD97F",
"S  c #2FD380",
"D  c #2AD580",
"F  c #29D680",
"G  c #2AD781",
"H  c #2ED480",
"J  c #2FD581",
"K  c #2DD681",
"L  c #2ED783",
"P  c #2BD981",
"I  c #2ADA81",
"U  c #2BD883",
"Y  c #2BDB82",
"T  c #2DD881",
"R  c #2DD883",
"E  c #2ED982",
"W  c #2CDA82",
"Q  c #2DDB83",
"!  c #2CDC81",
"~  c #2CDC83",
"^  c #2DDE82",
"/  c #2FD884",
"(  c #2CDA84",
")  c #2DDB85",
"_  c #2FDA85",
"`  c #2FDC84",
"'  c #2EDE85",
"]  c #2FDC86",
"[  c #31D280",
"{  c #30D481",
"}  c #31D784",
"|  c #31D985",
" . c #30DB86",
".. c #32DA86",
"X. c #30DC84",
"o. c #31DF84",
"O. c #30DE85",
"+. c #31DC87",
"@. c #30DD87",
"#. c #33DC87",
"$. c #31DF86",
"%. c #33DE86",
"&. c #34DD86",
"*. c #33DD88",
"=. c #31DE88",
"-. c #32DF8A",
";. c #37DD8A",
":. c #35DE8A",
">. c #34DF8A",
",. c #36DF8B",
"<. c #3ADB8A",
"1. c #39DC8A",
"2. c #3ADD8B",
"3. c #39DF8C",
"4. c #31E186",
"5. c #32E086",
"6. c #33E187",
"7. c #35E187",
"8. c #31E188",
"9. c #32E088",
"0. c #33E189",
"q. c #30E389",
"w. c #33E388",
"e. c #33E18B",
"r. c #33E38A",
"t. c #35E089",
"y. c #34E388",
"u. c #36E288",
"i. c #35E08B",
"p. c #36E18A",
"a. c #34E28A",
"s. c #36E38B",
"d. c #32E58B",
"f. c #37E58A",
"g. c #35E68A",
"h. c #34E28C",
"j. c #37E28D",
"k. c #36E38D",
"l. c #37E58C",
"z. c #36E68D",
"x. c #35E58E",
"c. c #37E48E",
"v. c #3AE28E",
"b. c #3CE28E",
"n. c #3DE38F",
"m. c #3EE28F",
"M. c #3AE58D",
"N. c #38E68D",
"B. c #39E78D",
"V. c #38E58F",
"C. c #3AE48F",
"Z. c #39E78F",
"A. c #34E98F",
"S. c #39E98E",
"D. c #3AE88E",
"F. c #3CE88E",
"G. c #39E691",
"H. c #3BE691",
"J. c #3CE790",
"K. c #3FE592",
"L. c #3CE792",
"P. c #35EA90",
"I. c #3BE991",
"U. c #38EB91",
"Y. c #3AE892",
"T. c #3BE993",
"R. c #3DE891",
"E. c #3DE893",
"W. c #3DEA92",
"Q. c #3EEB93",
"!. c #39EE93",
"~. c #3EEC91",
"^. c #3CEC93",
"/. c #3BEB94",
"(. c #3EE994",
"). c #3DEA94",
"_. c #3EEB95",
"`. c #3DED94",
"'. c #3FED94",
"]. c #3DED96",
"[. c #3FEC96",
"{. c #43E794",
"}. c #41EB96",
"|. c #44E895",
" X c #44EA96",
".X c #41EC94",
"XX c #41EF95",
"oX c #40EE96",
"OX c #40ED98",
"+X c #40EF99",
"@X c #43EE99",
"#X c #44EF9A",
"$X c #4AEE9B",
"%X c #42F098",
"&X c #42F09A",
"*X c #42F29B",
"=X c #44F199",
"-X c #45F199",
";X c #44F19B",
":X c #44F49B",
">X c #45F29C",
",X c #46F39D",
"<X c #4AF59E",
"1X c #4DF3A0",
"2X c #4AF5A0",
/* pixels */
"( V 9 - % R >.R L #.b.L.{ 4 4 { <.[ 4 e ",
"( =.V.).L.@XE.R  .L y 3 1 m m < 4 r m S ",
"e.V.).&X@X2X#X>. .L y q m 2.2.m ( >.h.=.",
"T.c.=.( R L.@XV.L #.b. X$X{.{.1X>X&X@X[.",
"U ] =.V.G.>.R i.v.>.L r b. X Xb.: c.&X/.",
"G.e.U g V.#X).G   = L 3.2.r r >.@Xe.u # ",
"X - g G >.3 O a g g q q 3 } } 3 L 4 3 n ",
"T.V.h.=. . .G 3 >. . . .( L L  .v.>. . .",
").T.V.G.T.h.( ( R #.L.}.L.&.&.V.:XT.d.d.",
"U =.G.@X&XT.h.h.#XV.G 3 R E.E.R e.P.!.A.",
"V.e.U g ] >X[.7 V G U ( R & & U ! , ; l ",
"c G ( ] h.: # g 9 g V G c.^.^.c.e.V.E.oX",
"V.h.e.=.&XV 7 #.i.V.T.D.c.D.D.i.i.i.E.;X",
"=.=.#.#.c.@X).=.#.e.i.f.6.a a 6.X.a n i.",
"# u =.T.U g V =.oXi.V & i 7.7.a . V i.#.",
"=.G 9 # 9 T.;Xh.: a ] f.V.i.i.F.<X.XR O ",
"e.h.h.h.>X>XoXV.R 7 @ A 6.^.oXf.i.V.oX;X",
"h.V.T.).V.&XoXe.#.#.6.#.w.! ! D.U ] i.V.",
"G.c.h.=.] e.i.e.[.&XoX^.D.! C 6.e.] U c ",
"o u e.).] 9 c E.V.E.i.v A w.f.A f U c.[."
};
