/* XPM */
static char *_1d5693d6daf4fe8f26c2c70789871b9RgcMWshC8xTNMuov[] = {
/* columns rows colors chars-per-pixel */
"20 20 128 2 ",
"   c #CB3704",
".  c #C53D02",
"X  c #CA3C06",
"o  c #CC3A0B",
"O  c #D23900",
"+  c #C64402",
"@  c #CB4405",
"#  c #C34F02",
"$  c #CB4C05",
"%  c #CD440B",
"&  c #CC4D0A",
"*  c #D44604",
"=  c #D24D06",
"-  c #D84F06",
";  c #D2450A",
":  c #D34C0B",
">  c #DA4A0D",
",  c #C75302",
"<  c #CD5406",
"1  c #C25208",
"2  c #CD540C",
"3  c #CD5B0B",
"4  c #D05007",
"5  c #D05907",
"6  c #D3540D",
"7  c #DA530D",
"8  c #D45B0C",
"9  c #D95F0C",
"0  c #CC4E11",
"q  c #D04711",
"w  c #D34E13",
"e  c #D94A14",
"r  c #CD5711",
"t  c #CE5B12",
"y  c #D55411",
"u  c #D95312",
"i  c #D45B12",
"p  c #DA5D13",
"a  c #DB5719",
"s  c #D75A18",
"d  c #DC5F19",
"f  c #E25C15",
"g  c #E25618",
"h  c #D6620F",
"j  c #D9600F",
"k  c #D7680F",
"l  c #CE671A",
"z  c #D56415",
"x  c #DA6415",
"c  c #D56B16",
"v  c #D96B15",
"b  c #D26218",
"n  c #DC651A",
"m  c #D36D19",
"M  c #DD6C1C",
"N  c #CF741A",
"B  c #D77315",
"V  c #DC7816",
"C  c #D3721C",
"Z  c #DB721D",
"A  c #D6791A",
"S  c #DD7A1D",
"D  c #E3641B",
"F  c #E06C1F",
"G  c #E1731D",
"H  c #DC6C22",
"J  c #DD7522",
"K  c #DC7D22",
"L  c #E66D24",
"P  c #E37323",
"I  c #E37C26",
"U  c #E87B26",
"Y  c #E57728",
"T  c #E47C29",
"R  c #EB7F2D",
"E  c #E37F31",
"W  c #D68126",
"Q  c #DC8526",
"!  c #DA8A27",
"~  c #D68529",
"^  c #DD872C",
"/  c #DC8B2A",
"(  c #DE932E",
")  c #DE9230",
"_  c #E28325",
"`  c #EC8026",
"'  c #EE8227",
"]  c #E08528",
"[  c #E1872D",
"{  c #E8842E",
"}  c #E68F2E",
"|  c #E58E2F",
" . c #E89A2E",
".. c #E38732",
"X. c #E88530",
"o. c #ED8431",
"O. c #E58D33",
"+. c #E88D32",
"@. c #E29636",
"#. c #E49234",
"$. c #EE9132",
"%. c #E49A37",
"&. c #E79C37",
"*. c #E29239",
"=. c #E0973B",
"-. c #E89539",
";. c #EA9F39",
":. c #EB983C",
">. c #EB9F3D",
",. c #EF9C3E",
"<. c #EE9B3F",
"1. c #F0963E",
"2. c #F19A3D",
"3. c #DEAE3F",
"4. c #E1A23B",
"5. c #E3A43B",
"6. c #E7A73B",
"7. c #E5A43E",
"8. c #E9A43D",
"9. c #EF9F40",
"0. c #E6A642",
"q. c #EDA543",
"w. c #EBA948",
"e. c #EFB14A",
"r. c #EEB04B",
"t. c #E6BA4D",
"y. c #F0B24B",
"u. c #FBCC62",
/* pixels */
"z p 8 x Z _ S S n i 0 M B V , a D Z / I ",
"Z M j x z M t z p 6 & F U ` 2 & 8 W e.7.",
"S G x p i y + : 7 8 5 x x n & 2 z @.u.t.",
"V M x y u % . e x M k 5 & & & y M ,.e.4.",
"x i i 6 u : & D J I v h i a u 7 J 2./ [ ",
"i 6 y : : $ 3 Z ^ { v x n L d 7 m O.N I ",
"p 2 i 6 4 2 m Q / R y p c _ M i 2 Z m M ",
"9 < x i i n X.:./ Y @ i S  .K b 7 n P c ",
"i r n u p C 8.6.-.J @ : b Y i : % s t 2 ",
"f i 2 : p C q.5.&.J + @ & d y : $ ; : 6 ",
"G K N i 6 $ R o.A z & e ; @ r 1 b @ * 7 ",
"` } ~ m 7 + i t x : X     2 1.w.*.< 7 n ",
"_ ( %.I p 4 2 y > X o o @ 3 >.3.=.# = i ",
"Q ) 9.T 8 8 2 : @ . % q @ 3 $.;.E $ * i ",
"8 5 8 6 z [ ^ m $ + w u $ , x z u + @ 6 ",
"p 7 - 7 z #.<.Z 7 @ : p n M p $   . & s ",
"G z - 8 v U ..l % % y i c U i 4 % . 6 H ",
"#.~ c c c n x : X % u p x P 8 6 p & 6 M ",
"y.0.[ [ K 8 $ O X X : - = p 8 x Y z i x ",
"! / K / } Z z g ; ; ; * * 6 x T +.Z x p "
};
