/* XPM */
static char * open_door_xpm[] = {
"158 19 2 1",
" 	c #FF00FF",
".	c #FFFFFF",
".......                                                   ..   ........    ..                                                                                 ",
"........                                                  ..   ........    ..         ..                                                                      ",
"..    ...                                                 ..   ..          ..         ..                                                                      ",
"..     ..                                                 ..   ..          ..         ..                                                                      ",
"..     ..   .. ...    .....      .....     .....          ..   ..          ..        ......     ....              ....      .. ....        .....     .. ....  ",
"..     ..   ......   .......    .......   .......              ..                    ......   ........          ........    ........      .......    ........ ",
"..    ...   ...     ..    ...  ..     .  ..     .              ........               ..      ..    ..          ..    ..    ...   ...    ..    ...   ...   ...",
"........    ..     ..      ..  ..        ..                    ........               ..     ...     ..        ...     ..   ..     ..   ..      ..   ..     ..",
".......     ..     ..........   ..        ..                   ..                     ..     ..      ..        ..      ..   ..      ..  ..........   ..     ..",
"..          ..     ..........    .....     .....               ..                     ..     ..      ..        ..      ..   ..      ..  ..........   ..     ..",
"..          ..     ..               ...       ...              ..                     ..     ..      ..        ..      ..   ..      ..  ..           ..     ..",
"..          ..     ...                .         .              ..                     ..     ...     ..        ...     ..   ..     ..   ...          ..     ..",
"..          ..      ...     .  .     ..  .     ..              ..                     ..      ..    ..          ..    ..    ...   ...    ...     .   ..     ..",
"..          ..       ........  ........  ........              ..                     .....   ........          ........    ........      ........   ..     ..",
"..          ..        ......    ......    ......               ..                      ....     ....              ....      .. ....        ......    ..     ..",
"                                                                                                                            ..                                ",
"                                                                                                                            ..                                ",
"                                                                                                                            ..                                ",
"                                                                                                                            ..                                "};
