/* XPM */
static char *fc152006f90b41fcc9be4ef2c0a997572GQTUTpqGJIyOA0k[] = {
/* columns rows colors chars-per-pixel */
"20 20 111 2 ",
"   c #75151C",
".  c #7E161E",
"X  c #75181F",
"o  c #7B1A1F",
"O  c #7E1721",
"+  c #7D1921",
"@  c #84141E",
"#  c #8B161F",
"$  c #85191F",
"%  c #841622",
"&  c #8C1623",
"*  c #841923",
"=  c #8D1A24",
"-  c #8C1B29",
";  c #931623",
":  c #9A1625",
">  c #931B25",
",  c #9A1A26",
"<  c #931928",
"1  c #901A28",
"2  c #911B29",
"3  c #911B2B",
"4  c #971A28",
"5  c #941B2A",
"6  c #951B2A",
"7  c #901C29",
"8  c #931D29",
"9  c #921C2A",
"0  c #971F29",
"q  c #971D2A",
"w  c #941E2A",
"e  c #961E2A",
"r  c #961B2D",
"t  c #941C28",
"y  c #9B1828",
"u  c #981A28",
"i  c #981B29",
"p  c #9B1B2A",
"a  c #9C1929",
"s  c #9F1B29",
"d  c #9E192A",
"f  c #9D1A2A",
"g  c #9A1C28",
"h  c #9B1D28",
"j  c #981E29",
"k  c #9B1F29",
"l  c #9A1D2B",
"z  c #981E2B",
"x  c #9B1F2A",
"c  c #9C1D28",
"v  c #9D1E29",
"b  c #9D1D2A",
"n  c #9F1C2A",
"m  c #9C1E2A",
"M  c #9D1F2A",
"N  c #9E1E2B",
"B  c #9B1E2C",
"V  c #9B1E2E",
"C  c #9F1C2C",
"Z  c #9F1F2C",
"A  c #9B1C29",
"S  c #9B1E30",
"D  c #A21929",
"F  c #A21B29",
"G  c #A31A2A",
"H  c #A11D2B",
"J  c #A31C2A",
"K  c #A01E2A",
"L  c #A61C2B",
"P  c #A31C2D",
"I  c #A11E2C",
"U  c #A31F2C",
"Y  c #A41D2C",
"T  c #A61C2C",
"R  c #A61D2D",
"E  c #A71D2D",
"W  c #A61F2D",
"Q  c #A71F2D",
"!  c #A51E2F",
"~  c #A71E2E",
"^  c #A21C2C",
"/  c #A91829",
"(  c #AB1C2E",
")  c #AC1D2F",
"_  c #AF1C2F",
"`  c #AF1E2F",
"'  c #A71E30",
"]  c #A61F30",
"[  c #B01D30",
"{  c #8A2022",
"}  c #952029",
"|  c #96212A",
" . c #95212E",
".. c #96202E",
"X. c #992029",
"o. c #9A212A",
"O. c #9A202B",
"+. c #9A202D",
"@. c #9F212D",
"#. c #9C222D",
"$. c #9E212F",
"%. c #9F2230",
"&. c #A1212E",
"*. c #A1232F",
"=. c #A5212E",
"-. c #A6202F",
";. c #A9212F",
":. c #AA202F",
">. c #A32032",
",. c #A72031",
"<. c #A22631",
/* pixels */
"; ; 8 8 > 4 4 & * * - 3 & % % * & & * * ",
"8 n ) [ ~ Z n y = > & o o - > #   . & 1 ",
"~ 4 # & u ~ H 4 & = 8 U H ; = o.:.~ n 4 ",
"- 8 g n g 4 e 9 g u u 4 g ~ ~ D : u D L ",
"= & y s u ; ; & = > & & > y s y ; 4 u s ",
"V & $ = } V 9 * + o * 5 3 % * - >.V = % ",
"X . & u 8 * + O * & %   X * = % + O % % ",
"r 1 > g 4 & & * & = > y 4 = = 9 s u > - ",
") ~ n c y : > { ; n n @.&.u u n :.~ H y ",
"$ u ( :.o.= 4 / <.g @ @ 5 g Z g : u H =.",
"8 = $ & U ~ y ; & - * - - & & = 8 & & @ ",
"} = = = = - = * & = % = 3 > > = 8 > 4 4 ",
"# ; : 4 = . $ & g 4 & > V @.&.g u s U ' ",
"H n g @.,.~ n e : g o.@.g u g g 9 3 = & ",
"> > 4 u u y u n n g > > & ; 4 & + + * * ",
"* = & = & = = - 5 1 & & & 3  .= * * * = ",
"- % . $ = %.+.&   O * e 4 4 g U ) ) D y ",
"u 4  .V U ' s ; * * . = y H g 4 4 g g g ",
"D n @.Z D G y u e = = > y y 4 8 & 8 8 8 ",
"~ g 4 & 4 n 4 4 8 n =.=.5 & & e u g ; & "
};
