/* XPM */
static char *e98c8da85c9c49d2a1334d904b9b2cc1QAzhDmOE32ceCqsg[] = {
/* columns rows colors chars-per-pixel */
"64 64 122 2 ",
"   c #353A3B",
".  c #383D3E",
"X  c #393F40",
"o  c #3D4243",
"O  c #444847",
"+  c #424748",
"@  c #454B4B",
"#  c #494E4E",
"$  c #49504F",
"%  c #464F51",
"&  c #494F50",
"*  c #475053",
"=  c #4C5353",
"-  c #4E5659",
";  c #4F595B",
":  c #515656",
">  c #515759",
",  c #535B5C",
"<  c #585F5E",
"1  c #57615F",
"2  c #59615F",
"3  c #555E62",
"4  c #585F63",
"5  c #576264",
"6  c #5A6365",
"7  c #5C666A",
"8  c #5E6A6C",
"9  c #5F6B70",
"0  c #636967",
"q  c #61676A",
"w  c #626B6D",
"e  c #636D71",
"r  c #667174",
"t  c #6A7375",
"y  c #677479",
"u  c #6B7579",
"i  c #6D797C",
"p  c #707679",
"a  c #717B7D",
"s  c #75807E",
"d  c #6D7B81",
"f  c #727D82",
"g  c #787E81",
"h  c #6E8084",
"j  c #758184",
"k  c #798386",
"l  c #758489",
"z  c #7B858A",
"x  c #7D898C",
"c  c #7D8A90",
"v  c #80878C",
"b  c #808A8F",
"n  c #818C8E",
"m  c #808A90",
"M  c #838D92",
"N  c #838E93",
"B  c #858D92",
"V  c #848E94",
"C  c #859094",
"Z  c #859194",
"A  c #879094",
"S  c #889094",
"D  c #8A9597",
"F  c #879398",
"G  c #8C969A",
"H  c #8F979A",
"J  c #8D969C",
"K  c #8B989A",
"L  c #8D989C",
"P  c #8E999C",
"I  c #90979A",
"U  c #91999D",
"Y  c #939A9D",
"T  c #929B9F",
"R  c #949C9E",
"E  c #8F9CA0",
"W  c #929CA0",
"Q  c #949EA1",
"!  c #979FA4",
"~  c #999FA1",
"^  c #96A1A4",
"/  c #96A0A5",
"(  c #99A0A3",
")  c #9AA1A6",
"_  c #9DA3A5",
"`  c #9AA4A5",
"'  c #9CA4A7",
"]  c #9BA4A8",
"[  c #9CA5A8",
"{  c #9EA9AB",
"}  c #A0A6AA",
"|  c #A3ABAD",
" . c #A8ADAE",
".. c #A6AEB1",
"X. c #A8AFB1",
"o. c #A7B0B1",
"O. c #AAB0B3",
"+. c #ABB0B3",
"@. c #ACB3B5",
"#. c #AEB3B6",
"$. c #AEB5B8",
"%. c #B1B7B9",
"&. c #B1B8BA",
"*. c #B2B8BB",
"=. c #B4BABC",
"-. c #B8BEBF",
";. c #B7BEC0",
":. c #B9BFC1",
">. c #BBC0C2",
",. c #BDC2C4",
"<. c #BEC5C8",
"1. c #C0C5C6",
"2. c #C2C7C8",
"3. c #C4CACB",
"4. c #C8CDCE",
"5. c #CBCFD0",
"6. c #CDD2D3",
"7. c #D3D6D8",
"8. c #D3D8D9",
"9. c #D4D8D9",
"0. c #D9DDDE",
"q. c #DEE1E2",
/* pixels */
"= : $ @ o @ @ , , + = @ @ & * # # @ # O @ @ @ @ < 6 , # O @ @ @ = # @ @ = + : + @ = = o = = & @ @ = = O O + & , @ = = o @ + + # ",
"+ + O > + @ = = = & @ @ = @ + = = = @ # = @ + @ = , > > @ @ @ : @ # + @ + @ = @ . = = @ O # @ = + @ @ > @ o o @ = 6 = @ + @ O @ ",
"o o @ 4 , e t 7 % w 6 - @ @ + = , 3 , 6 i e 7 r 7 w e , + + o + , j e , 7 a i t , b b m a q # @ , 6 i j 6 7 7 7 j i 7 e r , - , ",
"o o a H / [ H z e r w - & + , w w 8 f k i M j u a j [ 8 + @ @ + 7 S f w u x C [ u z Q ( M i : # i Q ` $.U z n ! C H C R Q M M r ",
". o e %.&.J V U e i u 8 @ + 8 S x U M >.S x z U i r M 6 + = o o 7 =.K n x M &.&.L 9.+.B u 7 6 : v v 7 U j a B ] i ' +.#.( B D w ",
"o o i f d 7 e r 7 3 t * @ $ t _ ) ) H i z f 8 t x 3 l , @ @ = O * t i u r C W C f Q S a e < : @ 3 5 3 7 u d ; 8 5 a t v j u z - ",
"o + w 8 3 j , 8 y 6 t , : @ w U $.+.S S k x f B L S z w O = # + r Q C C d H W H f L ) L C e # @ 8 f u | [ n r #.i #.Q [ f t e q ",
"o O f x u j b t b j Q 7 o # 6 r i M f D | [ j r i M r , @ O & o 6 b Q C z x { z r M S z S f @ : a f U } S D j k D Q z L u e S e ",
"@ o w R j t j L M x -.i   o 3 i M H M } ,.z 7 7 e S X.e + o = @ f +.S W m M L U i J W ..Q t @ 6 q H b k ..H ) / C -.| u x x C u ",
"o + a ( x t 8 M M r | ; o @ 3 D k f U ) -.k t r 5 e l , + @ = o 8 z D +.C t z u 3 U i j x 3 # : a e e u z t w e u x C j u M S n ",
"o o 6 e w e e f H | | f @ + 8 $.&.4.$.[ 6.&.H z f f f 8 + @ @ + u U &.0.U S S $.S Q ! [ &.e = : a p D  .Q f z f D 1.' $.L C e , ",
"o o 6 j u 8 r a w e z w @ + 3 u M z S r j i r , 6 r i y O + = @ 6 a ~ Q z j U | C ..z S ) f # 6 6 S U _ u U L S b L C n C C 7 - ",
"o @ , z x 6 x H k X.L i O @ - t a k D i u H d 7 7 j i 7 + @ # o 0 B z S f a ) F u Q z l C r @ = w b I D y I H c C H u [ H x z w ",
"+ X @ f Q i D u 7 i j * @ @ = u n M S u S ' u u e u n 7 o @ # + e C H z M C H #.H | W M D 5 # = a U R z 7 r f f y e 4 r u t n 8 ",
"o   @ U -.C Q / F Q ( r # = = a f z e j k k f f S | U a + # = O , j i r 8 f r x t j j _ H 8 = & a b z z f f V x L %._ U t n C v ",
"o O = u j 7 9 7 e e j , + # M B ) ) | b j D u e z u a u @ = : + , v m y y z C u r 6 t k t , @ # e 6 7 e 6 * t 7 d u f j 5 u w 5 ",
"@ @ # = > + + , < 4 3 = O < 6 0 = = w , 6 = : # @ o = 6 , , 6 < # = = # # = @ = + = 6 , , = # 6 @ , , < @ = , 1 = = = , @ + < + ",
"= @ + : 6 @ + = < = = & , 0 = = = # = > , < < = @ @ = : , 6 & # @ = = = O @ @ @ @ , q 6 , = = < 2 0 = = o @ = @ = @ = , O o @ @ ",
"# O @ t t 6 = 6 - 8 , 6 = 8 > - = , - 6 7 r 8 t 3 w y C C C 3 O & # - 7 8 t 6 u t n ' a 3 = * , 6 # 4 < - w 3 3 3 4 , r , % ; ; ",
"= + = v U f j x M z C S f l Q j @ @ u B M D Q M r u n M j F f = O @ 5 H U t Q D u i x Q H S z k , = r z x a t e B z x } ) x C w ",
"@ + = 7 u 6 u M l L C B ) ] +.6 @ < 5 Q Q h | $.) 7.7.Q L [ f @ @ = f b j j ) _ j M S M H t f w = # t S M f f w x S | 3.C 7 z r ",
"O + # n a 6 , u e f ..z S &.R 3 : = , D i x z [ H X.,.[ d ! H e = # w 7 8 7 t a r C 4.| ) +.' U + @ w S B z r 7 U b | k t z H u ",
"@ + , S 7 5 , 7 4 t C C w L z 6 @ # 0 ( M | C C L 6.F | ) U l 7 = # 5 e e t S z C f b j i H z a , @ r  .B r t r S M [ j e a H 8 ",
"+ o & t ~ a z a u n ) u b C f w @ # L 4.<.:.;.u e x i r f j r - + # r i w e H k k t C S D M | z $ = S | z H b U z u S i a f Q w ",
"@   , z } t w a t k D t a 6 e x # O e ~ M j L H H M k n e 7 x 8 @ = i U f w b | x ~ ( S u n } e # @ U H U H S R %.S R } a n b 6 ",
"o o = v R t 3 i r w %.+.| j x H @ @ f ( ] n z x U C r j a 3 8 5 X @ C 3.M S n x z D n t 7 i z a = : u ,.S a n i x H | a t f f 8 ",
"o + < k 4.[ C B ( H C ,.D C [ b @ @ y U S f W | >.| M U x k e - o = a 0.M [ 4.$.H | $.[ n / +.' @ = [ 7.B I H a u a ) n x H L a ",
"+ o 6 u f 7 r i U S C k z Q 1.k = @ y m M f n 0.} | S | $.L M , o @ x $.Q ..` [ j j M x f / ) j @ = q ( z n D r i f k S | | x 7 ",
"o + , i ) w u a f z B D r t u a + = z H | C a 3.U H i f z y / 8 + = e ..` C | ` 6 j C S M L | t = # e U a S v 8 r L z C j l x , ",
"+ X 6 n =.a [ H U n -.,.H M H l @ @ r x x M C C ..L H f $.3.=.w o , C q.U i r $.3 5 j C x -.2.Q @ # S +.U -.+.U ) =.#.( q.L z 3 ",
"+ o 6 q t 6 e 7 z U n C w x t 7 @ o u L j e 7 u F W x t [ L Q 9 O @ j >.J ` | [ x i D f z M k 0 @ o 6 t a a t u a j z B r d 7 = ",
"+ @ t 8 u 7 u a f M C x x r 8 M @ @ B | W r 8 n u y y j C l i 5 o = 3 7 - * j f 6 6 e 7 3 , i e + = 6 i w e r w 7 j z a i f r , ",
"@ + 2 6 = @ , < = = @ @ @ @ & < 6 = = @ O @ o # # @ @ O O @ @ & @ @ @ , = @ 6 = + @ = + o @ : = @ + = = & > = @ + @ = # O + o + ",
"@ O @ , < # @ : + @ = = # @ o > @ @ + O X + o @ o & + o o @ O O . + @ = O . @ = O = + O o # # # + = = = = O @ @ @ + @ O = O + + ",
"e , < 0 0 & , , O @ = @ + O + , = r ; , % 5 ; e f L d 7 o = i i r i i j r , x z r y , o + , 8 7 = , r , , , 3 e 3 6 = = 8 , - t ",
"S k t k a f x | f @ # o + @ = 6 +.2.L ) x n n k l z f , + o r M M &.+.| a l n U $.z 6 o + 5 i j u M [ j n 4.D M Q e = + M f C M ",
"u M D H B e e i 6 O @ @ @ + o x M [ ) +.n l x v M ..W i O o 8 ..2.#.+.q.U ] x D n H 8 o + e #.H M C U t z n a t 0 - # # 3 j n u ",
"6 6 w u w t ) M r @ O + & + # w u z $.6.W ..3.-.C / L y @ O 3 L &.H / 2.a U &.=.5.@.W O o i L x z -.| -.q.$.B i Q 5 # = 7 H z j ",
"j n S R j n z M 3 # & + o @ @ 7 / ) / &.t ` 4.D z $./ r o @ i x { C l &.<.M | ` ..| x + o a a k L &.2.] +...B S M t # @ a Q x 8 ",
"M x r g r 6 w a f = # # + @ O 6 d y f 7.b n 2.+.c &.U e O . a 2.8.| ` q.{ -.x i C { u + + a +.S &...L | C r f ' z j # @ a / f j ",
"i k u u k k L +.7 o # o $ # + , a w M [ w 6 3 7 t n M u @ O a r C l k L t M k r r H y @ + j ( i +.' M $.H f C -.z M # + 8 z i u ",
"3 8 0 6 6 e 0 ) e + @ X + : @ , l H | M 7 f H L / L E c # o * i x i | ..C 3.-.L U 6.+.+ @ H =.2.:.<./ :.u H &.2.,.t : = 6 w e u ",
"d M H R D [ W } i @ O o + + @ = u C W 8 = 7 0 = t S u i @ o , C H u H Q M M k y f L t o + t S x -.) U U u t $.,.| r : @ 3 n U :.",
"/ i e n n C U s 8 @ # O @ @ o @ x Q l M 6 C L 6 r H z 6 # @ 5 u L r u x S L / u M [ y + @ i ) S W S | 2.x D n :.| f = @ i ` U M ",
"t 5 w B r u 7 i w = @ + + = # % 7 7 8 f z i +.C f #.j f + = C M H U C x C C +.4.U U l = X z L L j ) ..W z L H ..] i # @ ; f w w ",
"u i S U C H r %.D , = o @ + # @ L j n S S i } ) U L H x @ @ x ; x U H / H C u H x 8 y = + x 7.$.) ' | j i j n %.l ; # @ 6 k f i ",
"y f 3 6 x C 6 r e = o + + = # = 3 6 , r , y x w z z f M + + 3 - 6 w 6 w 6 x M w U j 8 & o x b n H U M a e w 8 e 5 3 = O , 5 3 8 ",
"+ @ @ = = < @ @ , < & @ & = = & , , # , = = = 6 = @ @ < @ o o @ o @ = $ @ & = @ = > > & + @ @ @ @ , 6 & @ = > = O = O + # & o O ",
"o + $ # # , @ @ : = , @ + @ = @ & = , , : @ # = = @ # = = + o X # = & + @ > = + @ = = # O = + o & = = @ O : = @ # = # > # @ @ + ",
"% & = , * , @ < 3 @ & - , , , y 3 , 6 i w y e C 5 7 : , @ o o o X @ @ @ + + & o o @ = @ % 7 t 7 r M k f z w L C 8 # = 7 > ; , - ",
"8 r r l 7 u t 7 3 = = 6 e 7 u i k a p $.u , r U | U # = l l u r k i v i u i x * @ + @ O 6 W %.j n C v M L j C f , @ @ 7 8 r y M ",
"t 7 u 3 w { &.M e # @ 5 i M f z ..l [ &.) e w r x t # : 6 u i r z n C $.S R U r O + , & 6 M D C a u i j z t z k K @ O j Q $.j j ",
"3 w 3 6 r y a r * o @ , e r 5 - 6 w e x , 6 3 e r x + = -.C x | 2.6.&.<.r [ 7.; o + : @ w M +._ ) U C M | U H H 5 o o r j t e 7 ",
"7 , r 7 i S n L w o # i d M 5 w t 8 r z k 7 r H z 8 @ = M f 6 r f u r M C D H = @ # # # 7 8 r r m e e y e x C u , @ + e z M f a ",
"r 7 8 8 7 >.D l y + # , 8 f 8 f i H ) #.M 6 e r w - + = f &.[ / / u t M e / 2., O , @ # U B U ..5.>.n i x z U i i $ @ j j r y b ",
"C z f e , i H t 7 @ @ , , i e f H C l n C r n } l z @ = ` :.c / %.| [ 2.D L q.e . = = # y B | C U U f 7 M l t i - @ + 8 C j | x ",
"H Q l k 7 U M l 8 + # d 8 u c L 2.7.<.Q #.x Q | x e = : l | u L ) k D M z f H < O # : @ D $.) Q | +.W H H C x y - O O r U z x z ",
"e S D u 5 j f 9 7 # O - 6 C i 8 n L k r 7 i f a 7 7 = > e S M C L x j ) +.( ) j o = = # t S C n M &.;.H ) =.&.z , @ # r n M u j ",
"j | U x u n i z 7 + @ , 8 l i i Q q...U ,.L ` H f 7 , # j ] H j M M M H $.C z 6 + = = @ i C H z L $.-.[ b U z n , O + e z z D | ",
"l M W j C C i r e + O , r W $.) $.W C a x t k k 7 5 = = z W C x V D e M Q [ | 8 + + = = M [ Q S ` o.-.%.) V C x 7 @ o r c x W C ",
"7 e d l i z 7 r 5 @ + 8 9 e r f f z e r 5 7 7 i 8 5 > = 5 ' j W C C x z j | ` - o O = = j | 2.#.&.| / Q c Q y H 6 : + w W r i x ",
"r a e w 8 x 6 e , @ @ i M r l x z a i z r j &.| C i 6 = M ..-.x k z r f f L Q < o @ o . z S j i M x i l u z C #.e @ + ; S d i 8 ",
"u z u e z r 7 8 7 + + r z y C n [ C e x z L 5 7 e 3 : = 6 Q [ b H L J [ t U U , + @ = + u ) n C Q 3.` U Q | | / w = @ i F z D e ",
"t r r w 8 M e 6 5 o + , e 7 7 i f u e e u j , r e 6 = , i H M e a f j e w z a 5 o @ = o 6 j f z a U | f u f z C t = @ 9 r i z 3 "
};
