/* XPM */
static char *_1e067d8ec5f45e3959b14baa3a516ccuK60T7HpvHRFw6HE[] = {
/* columns rows colors chars-per-pixel */
"64 64 205 2 ",
"   c #652E1D",
".  c #5F2D26",
"X  c #5D2B2A",
"o  c #5D3425",
"O  c #5B362A",
"+  c #632D24",
"@  c #643424",
"#  c #6B3424",
"$  c #643925",
"%  c #6C3A26",
"&  c #64352B",
"*  c #6B352B",
"=  c #653C2B",
"-  c #6C3C2B",
";  c #743626",
":  c #753826",
">  c #70362C",
",  c #733C2B",
"<  c #7A3E2D",
"1  c #662E31",
"2  c #652C38",
"3  c #643235",
"4  c #6B3433",
"5  c #623C34",
"6  c #6D3C33",
"7  c #66313B",
"8  c #6D3438",
"9  c #643B3D",
"0  c #6C3C39",
"q  c #723630",
"w  c #743C32",
"e  c #793E31",
"r  c #743C3B",
"t  c #7A3B38",
"y  c #66432D",
"u  c #6D422D",
"i  c #74432D",
"p  c #7A432F",
"a  c #73492D",
"s  c #7B492E",
"d  c #664533",
"f  c #6C4433",
"g  c #6D4A35",
"h  c #6D4638",
"j  c #6E4C3B",
"k  c #744432",
"l  c #7B4533",
"z  c #744934",
"x  c #7B4B35",
"c  c #724439",
"v  c #7C463A",
"b  c #744C3B",
"n  c #7C4D3B",
"m  c #6E523B",
"M  c #775337",
"N  c #7B5235",
"B  c #74533D",
"V  c #7B523D",
"C  c #7C593E",
"Z  c #7B4341",
"A  c #744E41",
"S  c #7C4E41",
"D  c #755342",
"F  c #7C5443",
"G  c #765A45",
"H  c #7C5A44",
"J  c #76574A",
"K  c #7D5648",
"L  c #775B49",
"P  c #7D5C4A",
"I  c #7D5E51",
"U  c #7E614D",
"Y  c #776153",
"T  c #7E6352",
"R  c #7E6856",
"E  c #7E6758",
"W  c #7F695C",
"Q  c #824533",
"!  c #824B36",
"~  c #8D4B36",
"^  c #83473A",
"/  c #824D3B",
"(  c #894D3C",
")  c #825036",
"_  c #83523C",
"`  c #89523E",
"'  c #82593F",
"]  c #89593E",
"[  c #94553F",
"{  c #814E41",
"}  c #8A4E42",
"|  c #835443",
" . c #8A5543",
".. c #835A45",
"X. c #8B5A45",
"o. c #82564A",
"O. c #8C5749",
"+. c #835C4B",
"@. c #8B5D4B",
"#. c #935745",
"$. c #925A44",
"%. c #90574C",
"&. c #925C4C",
"*. c #8E5752",
"=. c #855E51",
"-. c #8A5E51",
";. c #915E52",
":. c #836147",
">. c #886247",
",. c #84624D",
"<. c #8B634D",
"1. c #86684D",
"2. c #966246",
"3. c #92634D",
"4. c #98644F",
"5. c #956A4C",
"6. c #846452",
"7. c #8B6453",
"8. c #856A55",
"9. c #8C6A55",
"0. c #846559",
"q. c #8C6559",
"w. c #856B5B",
"e. c #8C6C5A",
"r. c #926553",
"t. c #9A6554",
"y. c #926B55",
"u. c #996A55",
"i. c #94665A",
"p. c #9E6758",
"a. c #936C5B",
"s. c #9B6D5C",
"d. c #8F7156",
"f. c #86705C",
"g. c #8C715C",
"h. c #89785E",
"j. c #927057",
"k. c #94725D",
"l. c #9A735E",
"z. c #A1715E",
"x. c #8B6D62",
"c. c #946E62",
"v. c #9B6E63",
"b. c #8D7262",
"n. c #8B7963",
"m. c #8C7569",
"M. c #947363",
"N. c #9B7463",
"B. c #957A65",
"V. c #9B7A65",
"C. c #93746B",
"Z. c #94766B",
"A. c #9B7669",
"S. c #957B6B",
"D. c #957C6B",
"F. c #95796D",
"G. c #967D6E",
"H. c #99796A",
"J. c #9E7A68",
"K. c #9B7C6B",
"L. c #9A7E6A",
"P. c #9E7F6A",
"I. c #9F7D6D",
"U. c #967D71",
"Y. c #9B7E72",
"T. c #A17565",
"R. c #A17B65",
"E. c #A0776D",
"W. c #A17C68",
"Q. c #A27C6B",
"!. c #A57F6C",
"~. c #A87A6E",
"^. c #A47D72",
"/. c #A07F74",
"(. c #A97F71",
"). c #A27F79",
"_. c #9C8166",
"`. c #9B806D",
"'. c #9D816D",
"]. c #9D806F",
"[. c #968072",
"{. c #9D8372",
"}. c #9F8076",
"|. c #9C8876",
" X c #9C867A",
".X c #A3826E",
"XX c #AA816C",
"oX c #A18272",
"OX c #A38473",
"+X c #A78776",
"@X c #AA8373",
"#X c #A48976",
"$X c #AB8B74",
"%X c #A58478",
"&X c #AC877A",
"*X c #A38A7A",
"=X c #A48D7A",
"-X c #AA8C7B",
";X c #AD9079",
":X c #AB9181",
">X c #B39485",
",X c #BA9282",
"<X c #B49789",
"1X c #B69D8D",
"2X c #BD9F8E",
/* pixels */
"P C.-.,.a.W.L.H.*XP.g.N.M.6.K H 7.a.V.N.k.G..X7.b.9.6.,.R.H H a.q.7.a.V.k.+.6.+.+.7.N.r...+.,.F D j ,.M.+.b B P g.e.P k.H.`.+.I ",
"e.n.=XV.k.1.7.B.L.9.H.H.c.M.k.R H.=XL.e.oXOX:XB.].V.M.N.V.7.7.a.e.7.9.k.a.7.M.a.L.7.+.k.F ..r.@.,.U b.e.+.,.P L N.9.+.8.D.{.F.x.",
"/.x.0.8.P U y V w p % X * H - c | W.9.k.H.+Xb.b.P.F.M.k.7.a.N.!.e.M.M.e.+.+XoX! < i # @ b k < k v ` _ & B q.M.a.e.E.9.U e.w.b.e.",
"A.G.8.& $ H 7.F F v .., 1 , g & i l r +.-Xe.N.k.../ z $ , n _ x / n ,.a.7.N.+.. 4 q k x u * - i p & x u = 9.a.n i B ..b F G J e.",
"I. Xc y n y.a.@.=.| X.4 , % # b $.! Q c a.}.8.H z G B B b z x X.| ! i x y.y.6 u p , % = 4 : p z & i e & & F F f % = y y z u K V.",
"{.k.c - ^ =.n Q r.a.k * n X.v l , ~ + f M.$XB.@.P A B +.7.,...3.] x l ..a.7.H v b , ..V * ! = w p e 4 6 B M.+.b +.7.z z / @.,.c.",
"w.f +.n k F { o.} +.j c l O.,.f < , p z 7.+XN.L x v v +.:.&.@Xe._ x ' <.6.w.K V , ..,.X.^ < v _ k ` | w / {.e.H +.S v F _ / ,.k.",
"m.z b b x ^ l ^ o.v z -.1.-.7.V ..! _ =.V.9.j F T | j n z @.i.D x x X.x F ,.,.v x z k @ , < ^ p = > #./ n B.+.o.| +.7.7..._ z 6.",
"[.+.i b / x l * / F j.x l  .H % % k z @.i.U = F X.{ l l q , k f , A % - U +.F k u b + k k x l , o n 7.l.B N.V.6 c +.F x @.1.F ,.",
"U.x +.! F b @.F H 7.+.* f k = y # r.n b 7.M.,.F @.X.+.e n x S X.+./ l v 9.@.v 1.` x , n x @._ k X.! ..,.9.N.k.H F o.H C X.1.B e.",
"H.V +.7.- n n ..| @.n i - - g @ H #.&.f +.x.A | k z , l ^ l % b n ^ _ X.g.+.,._ l F i , l ` X.x n 3.<.7.| {.w.+.,.+.b x i +.| e.",
"G.V V i x , l ..7.+.F z % x P - @.B B P 0.6.b y.@.=...+.o.o./ & B _ l x J +.h.X.% l x n k % l b _ _ n z z b.e.| X.,.H F b i b ,.",
"H.V +.& , # p x k , _ % $ | i < n v = f w.F 6 y.k.a.j.7.j.<.o.6.x +.z n :.B.,._ ` _ x l i r l x ` X.,._ ,.w.P.$Xa.k j x i x ,.a.",
"H.& < 4 * 1 ` p $ c z x z U ! c F | @ b b.6.F e.B.@.+...7.P w.8.F u D ,.+.9.+.9.<.@.@.z i X.@.z V | s.M.,.S..Xk.,.b i V f z 7.9.",
"m..., % % x / x v o.F n | b P P H B x H *XM.9.7.l.8.,...n - b e.7.+.1.9.8.,.V.l.+.9.a...k.N.e.P K k.>X$Xk.8.N.k.F 7.7.6.M.M.a.7.",
"S.k.k.l F X.x ..a.V.j P w.+.F b 6.j ,.T.7.M.a.B.+.9.P P H c F +.9.l.y.l.B F XXk.:.+.N.L.l.H K V.V.9.B.B.L.d.H..XH <.y.7.7.M.a.w.",
"b.].%XN.b.7.7.M.q.r.F g.9.M.6.e.a.N.c.a.w.w.M.L.g.L.+.6.,.<.,.7.,.7..Xj.+.7.a.V.e.9.b.N.e.a.,.j.V.N.B.a.+Xl...7.7.k.,.N.j.a.W.[.",
"w.*XOXH.I.).2X[.+.a.&XY.e.9.k.e.@X=X8.e..XW.J.q.I.H.g.H.V.7.P.W.9.+...V i Z w l k % * 4 = F 9.H b n ' i V ` | V <...7.k.V.M.I.].",
"a.M.6.L.V.(.a.o...-.@XM.N.a.7.k.@XN.,.P ..v k P v b B V +.P M.9.8.7.= % ^ B / i z i n M x & 6.1.| r ..$ x - > w V C F z V B V n ",
" .8.V H F 7.F > Q l +./ 3.q.7...k 8 -   @ y # V u 6 & @ - f % e.V.9./ x p p p n # < l V B z ..+.p x k % w @ % x z 9.a.d H U K c ",
"a.r.+._ 7.k H _ v { g.l.X.n 9./ Z z ' ( - * n O.:._ i n H k V 9.y.7.x ..z b 6.b q f z z C ) ..7.x k u i x x - +.n l.e.+.B k.6.=.",
"X.6.9.S , ,.s.7./ | 7.4., i N.! 7.| l v 9.l < z ..F D 6.,.9.8.+X9.w.+.F z x V B & & a x b x 7.,...% . i ) p i B ,.7.N.N...H P N.",
"f 9.9.+.v +.=.-.X.+.6.X. .u.a.9.k.7.p v #.&.v { <.K , F ,.n j.M.a.V.` X. .x n z b i b k B ..e.U u * _ B H C x F :.+.,.8.M.H F ..",
"k 7.6.9.a.7.| k.N.n k.@.$.X.N.| H @.< , ; l  . .l.! , H H H F 9.G.@X, :._ z 4 , ` / % g f n D.6.z | <.M B k B _ @.w.d.:.,.n V j ",
"V +.F 1.,.+.v a.7.X.c.J.X.s.$XM.F +.( : + *  .l.%.Q _ <.7.#._ V.<.s.n b p k < l  ._ b u p V b.,.u X.V l c z  .@...M.7.F C _ 6.M ",
"k 7.q.8.+.F <.a.+.7.a...-.N.-XO./ ( ^ &./ X.k.7.7.( g w l u.4.+.T 7.+._ % _ v w x b k M z +.8.<.e...x _ @.F z M 9.7.,.k P V.7.V ",
"F e.+.a.7.n ,.6.n k.i.o.7.W.P.7.l Q , p t.t.a.F _ r.c = l B n | 7.9.B F | / / x X.! $ - z n :.8.H .._ n B y B H B.F +.,.8.+.| x ",
"K w.G.V.M.-.o.+.X.7.7.e.a.P.{.e.p l x / u.v.7.=.-.s.;.X.| b B | s.a.T , F +.B p l H m = b b 7.g.R g.b.6.U 9.H 6.6.B H e.b L +.7.",
"+.x.W.V.T w.V.H.e.9.H.L.OXN.M.W.N l &.e.O.7.v.;.O.@.@.X...k x =.a.!.7.F f F y.| ,.8.T H U t.k.8.L :.V.H.P ..f.S.:.P U f.8.,.+.k.",
"G.H.a.6.e.k.V.M.6.M.N.{.M.U.U.I.+.@.X.+.,.+.+.3.a.K +.7.s.b F +.,.r.k.7.9.6.g.e.d.9.N.6.U ,.+.P 8.8.e.n.9.F +.,.c.+.+.C.b.g.,.6.",
"C.U.G.M.D.M.k.M.a.P.&Xc.M.L.:X@X%XI.-.v a.n F l.t.7...+.XXa.,.k.+.6.OXl.+.+.H w.9.V.0.S.1.7.g.P G 8.f.k.e.H +.:.6.G.Y.L.6.M.b.w.",
"x.g.e.*X|.0.k.V.6.w.e.E.#X.X@X>X>X!.L.M.I.XX7.k.W..XM.W.a.M.r.N.`.M.V.7.y.k.,.,.F 6._.a.8.P M.B.8.,.b F F +.b b m k.a.+.D 0.b.C.",
"[.0.*X+Xv.G.{.*XB.:Xb.V.G.^.#XW.OX:X*XC.{.+XN.e..Xa.S.b.a.V.R.+.n.S.l.+.7.7.9.8.7.1.=Xh.k d F | :.i i :.| z 0 a u b d u g F g.M.",
"S.:XM.x.G.<X1Xb.M.-XH.G.{.c.W.V.N.@XOXk.OX&X&XM.a.9.c.OXG.M.a.n F H i x x x <.{.r.C K 5 6.n x b  .n V ,.x 0 x p i F f 0 x b m w.",
"C.L.V.z M 7.7.H C n a.@.r.K b @.<.X./ x B d.y.q.k.j.N.^.M.B * @ = f l @ b l 2.oX,.P H +.+._ i i i | V H c $ & i x B b u x ,.j 8.",
"{.f.,.u g 8.@.@._ , Q < l k X.| i x  .V u +.X.` x R..XM.k.u v b x Z = f - w o.a.7.,. .x B c 4 % _ n ..x ,.| u i _ z >.B k V :.S.",
"e.,.% 7.K | o.a.[ ( , v @...v ..x k k n C l V i i +.S.V.+.B , <.> * , y ) k B X.<.Q $.n ^ +.i % _ ..u / k _ u i x n k , K ,.u b.",
"e.{.u +.9.9.+.&.,.( n ..7.X.C l V V V b P +.n v k n k.oX+.i ,.x % i c n , p u _ 3.e t v +.p & - k ! l x n +.x $ x +. .e.,.n B 6.",
"6.7.b | F f w.<.7.l @.+.7.v +.V n n x +.H b l s.+.F V.U.6.z P 8.F V =._ b D p i &.v z _ k V % b F ,.i k B F F f % >.K k B b f U ",
"P ..M ,.d.,...n o.+.7...| X.T...% l _ +.| z l &.n +.P.e.H ,.@.@.7.F f f F | ^ x 7._ 8.i k x l x & B ,.z v b v b F B K f z H z P ",
",.0.B 7.i.9.:.V 8.a.O.4. .X.l.-.X.n <.C l F v O. .v.oXb.+.< ` _ H S F X.O.@.&.M.(.8.u...i n x & i b H | l i % x ..% B | u i x :.",
"9.e.D +.7.a.7.F a.C.9.<.7.e.X.*.-.+.w | q.V / Q u.XXa.a.6./ V C ..| _ 3.| n :.6.].H V +.x x u z V H $ ..V % & 0 F V k b i , ` 6.",
"a.+.y A @.e.,.=.*XS.S.a.6.{  .r.r.! v l | /  .| / b V.M.{.9.8.6.+.| j.a.F b F :.V.,.z n n x i ` K b l x x - & % +.b +.V 3 4 = ,.",
"U.1.y z V 6.+.a.a.y.P.e.6.7.z.7.D n v k  .@.u.+.c +.L.M.w.9.j.P H K F V F ,.n j.B.+.:.n z , f K +.D n ,.H b % z k +.z % k % = P ",
"a.:.3 B n ..o.@.+.F S P +.G.@. .| _ * / r.| F F V =.a.B.8.+.@.K n u ,.8.F V F ].b.:.F C = g j c 7.+.H k $ f k b j j D n u V :.9.",
"+.U +.P +.+.7.n z V a.+.a.w.7.i.u.r.,.@.| k b / s.7.M.b.e.S +.| +.M.,.+.n +.F D.M.B.9.6.A G A b 9.H H P n F V b b w.6.b B F {.a.",
"6.a.k.7.a.c.7.H 7.B.E.(.v.7.M.OXOXW.a.b.@.K 7.B.q.C.[.H.a.M.XX7.M.N.].e.,.8.9.j.B.M.9.I B.j.,.I P 9.M.V.L.,.+.V.Y.e.M.B.M.j.k.7.",
"b.S.0.a.oXk.F ,.M.S.L.>X@XM./.A.}.V.V.M.A.a.7.+.a.~.a.7.r.t.T..X(.B.e.g.| $ - k f $ - +.].+.+.l.e.d.U +.7.a.9.b.0.x.w.S.N.V.9.L ",
"b.w.e.W.@X+.H <.H.6.7.a.L.OXM.L.N.s.^.k.9.k.a.b.a.k.x l / ( y..XXXx.7.,.i o B = k 3 = % a.B.H ,.a.w.D H B 6.@.D D 9.b.,.,.6.6.9.",
"y k y , x , v ..b _ k...+.{.a.=.X.| N.7.+.V a.@X@.o.w l _ 7.O._ X.9.:.g w F F z H v , 2 0 n d.,...' 9 w g = l F l :.u u , 7 & p ",
"e X.k % p #.X. . .,.a.&.-.0.b.0.7.9.j.V.7.<.j.OX_ k ^ e l -.X.x _ W.,.| < <.5.w B :.l , & k U.G.| X.V c F k k n ,.K i - | l % z ",
"/ l n e l p.n @.3.| 0.q.a.=.e.N.W.a.V.l.k.W.,X>Xl  .l i / @...x 7.-X..,.x < x X.F b l l i V ].XX| >.b P V V = V K F f f @.X.` _ ",
"p l / p X.X.V n | X.+.+.6.b.c.7.i.@XoXM.B.].{.G.@., k n y.^ 8. .3.#Xv K n , k H a.( k < _ x V.9.k % k y = $ j b f b n F M D 9.F ",
"k u n _ X.z n  .| | r.,.e.6.J.v.+.c.@XoXM.M.H.W.k S l k S u.M.6.d.I.o.` o.V n ,.x > , , k x V.+.6 d f % 4 O B k k b | | 9.j F o.",
"k  .X. .f / @.t.@./ @.M.F 7.I.P.a.a.*X@XV.k.C.-X@.+.n k ,.a.i.K ,.[.,...+.+.F F f +.p 4 s _ a.+.k % - & 6 k :.n c - z z ^ B o - ",
"/ @.X.n |  .( z X.n q.X.7.T M.M.a.e.9.W.a.e..X$X9.K n H <.b k b k.=X6._ x B @.V b o.x z x l V.M.F / 6.a. .F f j K - k 6 - n V = ",
"k x k ^ / ( n v n ,.v 7.6.7.].M..Xa.g.y.7.a.P.N.x x S % F V b F 9.@XG 1.9.,.n +.n f # X.x k e.0.z i n 7.e.+.B b V % l k z _ X.| ",
"v - k _ z n n _ z M.K V +..XV.+X.XXXM.V.7.M.oXC.z n v * M ( r...9.;X+.j H V < n +.g n +., k w.W f * D n V K z n b k n @.| i k w.",
"! 8 - x x | M.| o.7.,.H ,.a.q.9.M.V.H.V.e.g.g.V.Q w s , _ e.o.,.y.*X=.V P % p V z z x n l N H.Y S p p F j z c o.+.- & k k $ - +.",
"p k D k | t.a.a.7.+.X.e.| -.q.=.y.e.V.L.9.m.a.u.4 8 < / X./ +...3.j...:.F +.A p l x , x a n 7.0.0 % x +.k l h b x < n = y b n ^ ",
"= v v f k H <.a.q.6.a.6...+.M.w.@.+.y.9.e.M.V.q.r O.3._ $...r.x / V.e.k V y._  .l , & @ % A S.a.b u b , k v < i x l X.z A z r.+.",
"k k f n z b 6.e.7.M.e.j.=.a.Z.S.M.j.+.M.P.*XL.E.+.r.l.l.@.r.&./ X.V.oX,.f i X.! % $ i z = P m.w.,.c , f G ,.x x # % l n l b | A ",
"..z B ,.F @...e.6.Z.E.C.e.I.{.a.r.l.a.M.W.{.:X(.k.n X.+.6./ l f ..H.-XV..., n x x % $ B b a.e.b.,.B ..i x x z ^ l , k o.7.V B +.",
"D T P 0.7.a.b.F.S.}.a.e.L.V.6.7.a.e.W.@XB.-X X*Xe.+.U _ | x n 6.7.M.c.oX9.k i - k x z F ,.6.7.E ,.,.+.o.V F F +.+.P +.+.g.M.L K "
};
