/* XPM */
static char *_fb2222ac45c44fbf0137e39ea4ddb2cD7nryq1BLaSALC3F[] = {
/* columns rows colors chars-per-pixel */
"64 64 189 2 ",
"   c #452D25",
".  c #492D24",
"X  c #422F28",
"o  c #4C3226",
"O  c #433028",
"+  c #4C342C",
"@  c #4C382F",
"#  c #53362C",
"$  c #5B372B",
"%  c #55392E",
"&  c #5C3B2E",
"*  c #4E3730",
"=  c #543730",
"-  c #553B32",
";  c #5C3D33",
":  c #623D2E",
">  c #623D33",
",  c #6B3E33",
"<  c #643F38",
"1  c #703D33",
"2  c #5F402F",
"3  c #5D4135",
"4  c #5E4339",
"5  c #65432F",
"6  c #634235",
"7  c #6B4336",
"8  c #674937",
"9  c #6C4936",
"0  c #644439",
"q  c #6B453A",
"w  c #65493B",
"e  c #6C4A3C",
"r  c #724436",
"t  c #784737",
"y  c #734A37",
"u  c #7A4B36",
"i  c #72463A",
"p  c #7A463A",
"a  c #734B3C",
"s  c #7A4C3D",
"d  c #6C513D",
"f  c #74513D",
"g  c #7B523D",
"h  c #7D593E",
"j  c #664D41",
"k  c #6C4E42",
"l  c #734E41",
"z  c #7B4E41",
"x  c #675046",
"c  c #6D5244",
"v  c #6C5449",
"b  c #745243",
"n  c #7B5344",
"m  c #765943",
"M  c #7C5945",
"N  c #745649",
"B  c #7B5649",
"V  c #75594D",
"C  c #7C5A4C",
"Z  c #755C51",
"A  c #7C5D52",
"S  c #796048",
"D  c #7D6153",
"F  c #7D6259",
"G  c #7C6860",
"H  c #814E3C",
"J  c #81543D",
"K  c #8A533E",
"L  c #845A3D",
"P  c #834E42",
"I  c #825543",
"U  c #895642",
"Y  c #835A45",
"T  c #895B45",
"R  c #825749",
"E  c #835C4B",
"W  c #8A5D4B",
"Q  c #915F45",
"!  c #835E51",
"~  c #885F50",
"^  c #856245",
"/  c #8B6445",
"(  c #836845",
")  c #8B6A46",
"_  c #84624B",
"`  c #8B634C",
"'  c #86694A",
"]  c #8B6B4B",
"[  c #906042",
"{  c #906E46",
"}  c #90614D",
"|  c #936D4E",
" . c #9A6E4E",
".. c #8D714E",
"X. c #91714D",
"o. c #9C744C",
"O. c #846253",
"+. c #8A6454",
"@. c #866B51",
"#. c #8D6B54",
"$. c #856559",
"%. c #8B665A",
"&. c #8C6759",
"*. c #85695B",
"=. c #8E6B5A",
"-. c #8D6F5E",
";. c #926652",
":. c #926A53",
">. c #916D51",
",. c #946D53",
"<. c #946D57",
"1. c #996D57",
"2. c #91665A",
"3. c #936A5B",
"4. c #936B5D",
"5. c #956D5E",
"6. c #8E7353",
"7. c #8C7057",
"8. c #8E7957",
"9. c #907052",
"0. c #927752",
"q. c #937454",
"w. c #997353",
"e. c #9A7654",
"r. c #967955",
"t. c #977A54",
"y. c #9B7955",
"u. c #997957",
"i. c #9E7A56",
"p. c #947459",
"a. c #96765D",
"s. c #9D7359",
"d. c #9B7558",
"f. c #9A765A",
"g. c #98755F",
"h. c #967B5B",
"j. c #977D59",
"k. c #9B7C5B",
"l. c #9E7E59",
"z. c #A07856",
"x. c #A17D5B",
"c. c #A17F5F",
"v. c #9B7264",
"b. c #957C60",
"n. c #9B7E62",
"m. c #9E7D61",
"M. c #A07E63",
"N. c #9D815E",
"B. c #9E825E",
"V. c #A1825F",
"C. c #A3835E",
"Z. c #A9845E",
"A. c #978261",
"S. c #9D8362",
"D. c #9E8569",
"F. c #9F8969",
"G. c #A18160",
"H. c #A18263",
"J. c #A38563",
"K. c #A58663",
"L. c #A18665",
"P. c #A98564",
"I. c #A48966",
"U. c #A98A66",
"Y. c #A38669",
"T. c #A88569",
"R. c #A38B6B",
"E. c #A48B6B",
"W. c #AC8E6B",
"Q. c #AA8C6C",
"!. c #AD8D6F",
"~. c #A6906E",
"^. c #AC916D",
"/. c #B1936F",
"(. c #A58D71",
"). c #AA8E72",
"_. c #A69171",
"`. c #AC9273",
"'. c #AF9877",
"]. c #A7977A",
"[. c #AD9679",
"{. c #AE997A",
"}. c #B19575",
"|. c #B19875",
" X c #B29779",
".X c #B39A7C",
"XX c #BA9D7D",
"oX c #B59D81",
"OX c #B9A286",
/* pixels */
"j.9.s ` ` ^ g M M J J W n E g g W f g Y Y n 9 9 9 d b f @.e s / l.r.u./ ^ ` T f 6 9 > 9 n J J ` Y g #.k.a.a.m.7.] w.] J 9 s G.S.",
"u.q y s g I g E f a q C b a R f a q i q n s y i e C w d 8 f g J u.K.u.g #.M g ` c 0 6 % q a Q / M E O.=.#.=.,.-.C _ E g a g  .L.",
"G.q g R Y a Y a B a q ! n q R O.s 8 a W s s g a C D V j e b a W !.c.V.V C W f.W N 8 b 6 & 7 U T I W :.~ #.*.` ` Y g ` Y g s / W.",
"J.a g R s i s s n T a C W W a l T a C ! , q e 8 k c j x n q W M B.G.q.f O.E L e ; k q , a 7 ` T +.Y I I +.T T ;.W _ b n R a h R.",
"K.e W I a s a z e l M 5.&.a b E z w b 6 q q 0 f d 3 w q a a N s S.B.V.a ` W n b x 8 ; 7 e n R W +._ ] g.#.s.4.<._ _ m Y n a f [.",
"!.a z T I l a n a > n n R a q n b q a e 7 e 9 q 0 l q q B 8 e 8 ( { q.5 T n W C 6 e 8 y e l $.e B _ E w.T #.+.` #.M _ g V M Y .X",
"`.I p a a > > a T i 7 a n a 9 T B a e a q ; > 7 7 7 a 7 0 e a r ) u.r.s B E g a l s r a n k M s R R a p.#.J h M ' >.M m Y B ^ XX",
"n.s s q 6 7 7 s I 7 7 q q s 6 y q a q 0 7 ; 0 i 7 e 7 6 3 M e 7 r.r.) g O._ : W b l g z n n g a a a Y p.y a Y _ >.7.^ e Y g g .X",
"E.n n q a a a n i 7 7 Y } s a ` M e ; > q ; > l n q > i n n b s X.8.) f n g t n q 4 a ` b b V e e R 9 m E I m @.` _ / ` M B S _.",
"S.0 > a 7 s I q q 6 a Y n J T W B e 7 b 7 q s q 6 k q 0 e a Y s ) B.r.9 n a s i 7 b z +.B B b M D n B a E #._ M _ m f Y e n ` Q.",
"Q.e > l r 7 r e e 6 7 n I T t n n n q z 7 q s l k e B e l ~ R R r.E.] 8 e i 8 I a e R $.! A B +.b l e y _ b Y _ _ m _ ` a 6 / !.",
"L.e ; q n 0 7 7 ; q 9 R s l 6 B n a 0 q a e l q a e e w a k l g ..S.] 9 a 6 a 7 q C ~ ! M C _ n R b e e =.N T +.n a Y n Y g ' |.",
"n.q 0 n B a q B W E n +.M B C =.O.a l +.m N V B b e 0 ; e R l b l.6...R e e e q w N ! E E +.l e V a e ` b *.e B z R E W b y >.`.",
"K.I 9 a b y l a Y Y ` g b I T 4.E f a T T a w b q e a w e B a ` X.R.u., a & 8 - 6 0 8 R B R a R B B b b b V 6 % 7 r 7 g y s / /.",
"Q.L./ 9 _ I 9 s a | / s ` W / f. .^ ` ` Y I g Y q m q u M E >.] | ^.0./ ' ( ' f./ ] q.r.>.b.n.n.(.).p.S.F.a.>.:.Y | f.| 0.| k.I.",
"l.^.J.J.E.^.k.k.S.`.`.`.`.[._./.}.^.U.I.`.`.Q.G.I.R.F.R.~.[.I.W. X'.V.l.V.K.J.V.J.R.L.~.S.{.[.[..X[.~._.`..XQ.D.I..X X X_.I.T.J.",
"f.c.k.L.a.T.n.@.G.Q.f.a.l.K.G.T. XU.J.Q.i.P.k.w.w.7.a.n.a.a.m.G.P.r.h.9.h.S.r.f.a.p.q.!.'.E.Y.Y.G.n.D.n.p.S.9.] 9.k.' p.q.e.i.p.",
"> 7 i 7 8 a t z C ! 8 e E n U E z.l.E.8 % y K T 6 e j j k k E &.B b 8 0 N & 9 6   # E L. XE a a E q a e > q 6 ; 6 0 8 b g r J 6 ",
"l i a q i 7 7 ! +.k w R E B W R k.Q.P.e r +.} a ! V k k B *.*.W q e Z 8 j Z 8 ; - j + S.I.^ b n E k s R e a q q b q i a 6 7 y 6 ",
"b e 8 6 > e i a W n 3 s B c g W f.[.k.a p b B a E b V q N Z V B 7 B Z e e e q # q 0 q S.Q.a a n a B n g n n l , B q q i a - > i ",
"7 a 3 ; > B n a b l 0 B +.l B ~ M.E.r.a e R z z e V v n C O.E q e l N 8 6 q ; 0 l N 4 S.F.e q B n e R R s s i l b 0 q n a % # e ",
"a 0 0 e N Y s a l w 8 a ~ &.b } | L.!.N q O.+.a e v b B l 6 ; q 6 ; w 3 7 0 e 6 $.v q D.].w b k q a N H a I s n n e b q 0 q > 8 ",
"8 % ; q a R 7 > B p ; ; a q s a ' Q.J.7 B B a s e V V 6 8 e 6 q > E > $ > ; 6 ; ; e ; B.F.f N e 8 E e n a R R 7 W O.8 e e 7 f 8 ",
"9 ; > 6 ; a k 0 q s > > 0 _ e f | `.E.b B n 6 a q E E q q > ; z 6 > 0 # ; ; w q ; w l m._.9 ; q a l r y a E B z b e > > 0 s 9 a ",
"8 a > 0 w s e q 7 t q a R I 0 6 | S.B.c B W l ; b ! e s 7 , 8 s n ; 0 ; a b k 3 C x w _.F.a e n ! R 8 T N +.V E T q a e Z W b ; ",
"N 0 w w n n y 0 ; a i B C R s s w.`.L.b ! a p e ; 8 e a a > i l ; e q n N > j N w w k h.F.7 8 B N N a R E +.$.A c b l V V n a 7 ",
"a 6 j 0 > 6 1 # 0 > 6 B b R p s Q.).k._ H a 7 6 ; 0 a q q 0 > a w e ; a , 6 4 6 3 - 0 S.A.f b V A C B n l $.b e 3 8 e R b a 6 b ",
"l e q 6 ; - 8 b ; w e 0 a b y y f..XS.q > a 7 7 % c 6 3 q > 6 b a 0 w z > 0 0 q j = 0 r.F.e e e Z l l l ! n n n 6 w B a N 0 a 7 ",
"w e 3 = ; w v ; 3 N v 6 0 e b a w..Xl.6 6 a q % # 0 6 ; 3 q l a a a e a 6 4 e w 3 = - 7.D._ q N A D Z B A Z 7 ; 0 0 = 0 6 w q 3 ",
"6 e ; ; > V e & j Z 8 3 3 C a 6 ] j.q.7 % 6 ; - % - 3 3 6 q C q C ; 4 b - @ ; - = 3 e q.E.9.n ! O.V b l N V q 3 0 4 ; a ; n y 7 ",
"n 6 > 6 m M J b n M n s ` p./ Y k.B.) Y 7 6 7 0 > 0 6 r a 9 a g n 8 6 9 & 9 7 # 6 M 9 ..E.J.| B +.Y b N V +.y e e b 6 q B R u 7 ",
"9.p.q.] ] L.R.h.Y.f.r.k.L.L.l.l.S.x.0.l.6.h.B.K.l.q.X.q.k.Q.l.u.r.k.l.k.r.0.] K.R.a.S.I._.Q.Q.!. X`.).Q.Q.S.k.I.S.a.6.Y.Y.L.G.f.",
"w.f.f.f.k.J.q...6.p.q.r.u.J.u.| w.x.q.w.( w.X.X.e.' ' 6.0.V.V.X.u.u.r.e.0.u.u.K.Y.f.@.k.[..X`.`.oX[. XQ.`.!.[._.E.R.8.D.L.`.Q.m.",
"6 ; > 3 w 6 $ % 0 ; x - e x 9 q p p i i ; ; 6 0 # % ; ; ; $ i.V.L 6 5 > # e e 3 ; 0 - a F C l A N c W r.R.Y.R a 6 k 6 a +.e 6 ; ",
"; > i 0 6 b & ; 8 v 3 e z w 7 > q R b M q s a % - - 3 ; & % X.K.Y ; 6 q i a 4 ; e q 0 l Z b N n b B n x.[.Q.e a R a a +.B ; ; + ",
"e e c x e k i 6 N B B N l c 9 s a B A 3 q 9 a ; > ; O % - ; q.0.7 6 3 6 e 6 0 6 q e q R N ! N n *.b n B.`.B.a E b M I R B 0 ; 6 ",
"a V V 3 3 l s a 6 e Z l 7 N e 6 6 n b - 3 B J a & + X + j % l.' & ; & 3 ; a q z 7 6 0 B G N a N *.D N B.'.m.9 M b C B B e > 6 6 ",
"B 4 v w - e 7 6 * x v ; 3 l > y r j e 0 6 a n q = + - + - % 6...& ; 3 ; ; q a 6 n l b e 6 = N N m C b l.`.!.b 6 Z b O.q 6 q > q ",
"b V 3 ; k A q e e B 6 ; > N g 6 6 j 6 ; 6 a a e 0 > + - w % ' ( 6 4 + ; 6 ; 0 6 ~ B ; q q q a q n a 6 f.E.I.7 0 E A e 8 > s a w ",
"b - ; k 8 0 0 k 0 e 3 ; > 0 > > e w q ; + e c q l 6 # ; 0 o ' l.r ; ; - ; ; 0 e f q > y a i a p q ; 6 S.[.L.3 0 N q q a a n n n ",
"q 6 6 q ; 7 6 0 0 6 w e 6 ; - - 0 ; 0 - q ; e q C y 0 a e 6 S.B.s - - v w 6 A 6 0 q i s q q T z i q e e.`.!.l B l q i B q B +.e ",
"; ; ; ; l w w 4 - 4 0 0 - > ; > ; 0 k q l 6 w V n s a M e 7 B.r.e ; 6 ; 6 q l q ; > z z e n W g f 0 3 w.`.!.O.6 ; 4 e a a R W s ",
"a q > q a 4 ; + + 3 ; ; ; a , , ; 0 3 b p j k e q N e O.B e r.J.f - 6 6 > > q a q ; a s n R W I a a a r.[.!.q 0 b l i O.O.=.+.z ",
"q i z 0 a ; < a 3 e 0 = > i 1 , 6 r V N l O.B a e 0 8 0 e e J.B.9 ; - b 4 q B 7 q b 0 q B B a p a l z e.oXQ.6 q B l E E O.R I s ",
"7 l q r ; a b b N j b 6 4 s u U s b D N 8 a k V j 0 C j e J ^.U.>.6 q 0 q e i ; 6 a 7 6 J r 7 s 6 9 a o.`.J./ e N b N e n p r s ",
"q 6 e i > 7 r 9 9 = ; q > > i , ; w e 6 e : e N e w e e p.k.T.J.q.6 6 8 e % ; ; q ; r 6 7 q 7 7 q n g w.[.E.Y.@.T e _ E a a q a ",
"I.R.a.m.I.^.^.J.B.A.S.l.G.Y.k.h.R.`.b.S.E.Q. XE.n.R.S.!.!..X^./.V.l.@.L.I.k.P.k.k.L.a.I.m.G.).D.Y.G.[.h.Y.}. XE. X`.(.S.L.S.`.`.",
"S.G.Q.`.U.Q.J.J..XI.R.Q. X).Q.Q._.[.F.I.Q.!.S.I.S.S.E.G.!.E.Q.T.u.u.B.B.E./.U.Z.L.I.E.L.!.Y.!.^.(.!..X}._.oXoX`.`.[.{._.`. X`._.",
"6 & a W d 0 6 9.B.V.u.g : # & & e N a a e b 8 + 3 8 C 6 M 2 : ; 6 $ : 6 3 | q.x.T.) 7 & > & 7 > e i t r q q W s > 7 7 s > s e 7 ",
"6 6 0 - 3 e 7 7 D.[.6.# % 3 6 0 B C b e b c ; o 6 b 0 & ; ; ; 6 6 7 ; ; 2 6 Y V.T./ . # 6 a P z > i I g q B R i 7 e b r y b a 0 ",
"B i a b e s ` L [._._ a B 4 ; w B B e b B B 0 ; 7 a e c 6 = ; Y n a a q B Y s Q.Q.#.q A a y s R s Y n.I n s.T I W a s a I g a z ",
"n M g C s p J +.'.I.q.e Y +.7 n a b l q n M i a q b c k e i y Y e > p n B E Y V.A.h.7 ` n 9 y s I Y Y M W g s u a a R s z a a q ",
"I l B z 8 s +.1.S.D.X.Y #.B E W E 6 n b 0 p s Y 7 b w j e J e Y q q p e B ;.W G.k.] 6 s z R I T I n R J } U s s > q n u > q q q ",
"T a m +.m b O.g h.R.B.f #.D R B V e a B E e n Y n V 8 0 N ; 0 0 q q a b z l a B._.e.e l q N %.+.#.E W J ;._ z e a a n H 9 7 6 i ",
"W W a b C C e e X.Y.9.9 / O.W T B b q c n s g s r a % > e ; ; B e 6 a a q i a e.U.k.0 s R n ;.v.+.T h p ` I & s a z r J s ; s n ",
"l T B W O.b N 6 h.D.r.a I +.M a B k b n l q 7 7 y a + ; 0 8 9 B 7 ; e e q n > m.!.c.a n T 2.;.+.q i a Y ` 9 y q s R +.n s s s z ",
"A O.b 2.n N a 9 r.j.l.U ` O.e b b b e l B a t a n A q n 8 4 w k 8 3 w 3 n 8 r k.T.f.E I n ! +.e e l a I B H z i w s P s 3 0 +.e ",
"a m q q C e _ w A.A.l.g B W a 9 ; a E e n a i 6 e M n k e a 8 a e b b 4 8 B y 9.J.M.q z N B n n b V q > I n I 6 q e r I q q R e ",
"` $.I l z b q e q.R.l.Y Y +.+.n a C k n B q a l I O.a l e 6 y a a 6 a 0 - a s c.T.k.s z z a I 3.R n z 7 I 7 p a l n s n n B W n ",
"R n e 0 i q e % w.`.L.% n C n s a ~ e n b n R a O.C e 6 4 e > 7 3 q e l b C z E.`.G.e n w B E R C l a n s ; B n g n s n e a i t ",
"q q q z k 7 0 9 x.0.u.> b n 6 n B n Y _ e a b s g 6 a ; 3 8 3 E b ; 3 0 a I 9 u.V.k.s 6 z s n +.a k i W 7 I +.+.s 7 :.W n r a 9 ",
"a q r g Y s q s I.8.r.L a #._ g ] 9.L ) | a a y a 8 9 3 f n ^ +.M 9 g g Y M g | Q.w.: & 6 a a _ 8 r y T L g g s [ L J / g 9 I y ",
"k.k.] q.c.h.q.P.B.h./ f.K.(.j.B._.E.l.E.!.B.r.k.9.n.6.f.r.f.L.E.u.w.k.f.k.f.e.Z.B.' r.e.9.e.Q.Q.U.I.I.!. XE.T.XX.X}. XT.w.q.l.q.",
"E.B.6.k.E.`.S.k.S.c.G.}.Q.^._.`.Q.V.I.I.I.r.r.0.h.B.h.a.R.R.G.V.l.l.w.r.S.c.V.V.r.q.S.k.A.G.^.T.E.`. X[.oX X XOX XXX X`.L.K.k.I."
};
